<svg xmlns="http://www.w3.org/2000/svg" viewBox="0 0 140.51 109.17"><defs><style>.cls-1{fill:#0095b2;}.cls-2{fill:#333;}.cls-3{fill:#00d1b2;}.cls-4{fill:gray;}</style></defs><g id="Layer_1" data-name="Layer 1"><path class="cls-1" d="M167,131.72V46.45h-9.07v2.91L115.7,83.7,73,49V46.45H63.94v72.73A16.87,16.87,0,0,0,57,117c.12.58,0,1.17.1,1.75,0,.27-.34.31-.47.12h0a.19.19,0,0,1-.16,0c-.44-.27-.94-.44-1.39-.71a6.23,6.23,0,0,1-.73-.24.15.15,0,0,1-.09-.06c-.49-.12-1-.27-1.44-.43h0a.24.24,0,0,1-.2,0l-.32-.1-.05,0c-8.27,1.71-14.52,9.56-14.52,19,0,10.67,8,19.32,17.93,19.32S73.52,147,73.52,136.29a20.78,20.78,0,0,0-.51-4.57V62.43l37.41,30.42h-1.68v4.2l.29.22h5.71l.67-.22a4.77,4.77,0,0,1,1-.46l41.55-33.78v56.37A16.93,16.93,0,0,0,151,117l0,.85h0a.28.28,0,0,1,0,.13v.45a.22.22,0,0,1-.08.18.25.25,0,0,1-.41.13l-.06,0s0,0,0,0a6.61,6.61,0,0,1-1.53-.64c-.28-.11-.57-.19-.85-.28l-.44-.14a.22.22,0,0,1-.19,0l-.25-.11s0,0,0,0a.92.92,0,0,1-.29,0l-.28-.07h0a1.13,1.13,0,0,1-.18,0l-.19-.06c-8.26,1.73-14.5,9.56-14.5,19,0,10.67,8,19.32,17.93,19.32s17.92-8.65,17.92-19.32A20.78,20.78,0,0,0,167,131.72Z" transform="translate(-30.75 -46.45)"/><polygon class="cls-2" points="37.38 8.48 37.38 8.61 37.32 8.56 37.38 8.48"/><path class="cls-2" d="M171.26,55.37l-.07.06V54.29l0,.06A5,5,0,0,0,171.26,55.37Z" transform="translate(-30.75 -46.45)"/><path class="cls-3" d="M160.08,131.72V46.45H151v2.91L108.78,83.7,66.09,49V46.45H57v71.21c0,.37,0,.74,0,1.11a.25.25,0,0,1,0,.13v.29a16.84,16.84,0,0,0-4.36-1.74h-.1a2.29,2.29,0,0,0-.28-.09,16.48,16.48,0,0,0-3.6-.4c-9.9,0-17.93,8.66-17.93,19.33s8,19.33,17.93,19.33S66.6,147,66.6,136.29a20.78,20.78,0,0,0-.51-4.57V62.43l42.2,34.32.34.27.15.12.48-.39L151,62.81v56.38a17,17,0,0,0-3.51-1.5h0c-.37-.11-.74-.21-1.12-.29h0a16.52,16.52,0,0,0-3.67-.42c-9.9,0-17.93,8.66-17.93,19.33s8,19.33,17.93,19.33,17.92-8.66,17.92-19.33A20.78,20.78,0,0,0,160.08,131.72Z" transform="translate(-30.75 -46.45)"/><polygon class="cls-4" points="30.56 8.51 30.56 8.63 30.5 8.59 30.56 8.51"/><path class="cls-4" d="M164.44,55.39l-.07.06V54.31l0,.06A5,5,0,0,0,164.44,55.39Z" transform="translate(-30.75 -46.45)"/></g></svg>