<svg id="Layer_1" data-name="Layer 1" xmlns="http://www.w3.org/2000/svg" viewBox="0 0 273.32 218.38"><defs><style>.cls-1{fill:#333;}.cls-2{fill:gray;}</style></defs><path class="cls-1" d="M278.49,224.87V54.32H260.34v5.83l-84.46,68.68L90.51,59.41V54.32H72.36V199.79a33.46,33.46,0,0,0-16.68-4.44c-19.81,0-35.86,17.31-35.86,38.66s16,38.64,35.86,38.64S91.52,255.35,91.52,234a42.11,42.11,0,0,0-1-9.14V86.28l74.82,60.85H162v8.39l.58.45H174l1.34-.45a10.64,10.64,0,0,1,1.93-.92L260.34,87V199.79a33.67,33.67,0,0,0-16.68-4.44c-19.8,0-35.85,17.31-35.85,38.66s16.05,38.64,35.85,38.64S279.5,255.35,279.5,234A41.49,41.49,0,0,0,278.49,224.87Z" transform="translate(-6.18 -54.32)"/><polygon class="cls-1" points="66.17 16.96 66.17 17.21 66.06 17.13 66.17 16.96"/><path class="cls-1" d="M278.63,72.17l-.14.12V70l.08.12A9.4,9.4,0,0,0,278.63,72.17Z" transform="translate(-6.18 -54.32)"/><path class="cls-2" d="M264.85,224.91V54.36H246.7v5.83l-84.46,68.68L76.87,59.45V54.36H58.72V199.84A33.44,33.44,0,0,0,42,195.39c-19.8,0-35.86,17.31-35.86,38.66S22.24,272.7,42,272.7s35.84-17.31,35.84-38.65a42.24,42.24,0,0,0-1-9.14V86.33L161.27,155l.68.55.3.23.95-.78,83.5-67.88V199.84A33.57,33.57,0,0,0,230,195.39c-19.8,0-35.85,17.31-35.85,38.66S210.22,272.7,230,272.7s35.84-17.31,35.84-38.65A41.63,41.63,0,0,0,264.85,224.91Z" transform="translate(-6.18 -54.32)"/><polygon class="cls-2" points="52.54 17.01 52.54 17.26 52.43 17.17 52.54 17.01"/><path class="cls-2" d="M265,72.21l-.14.12V70l.08.12A9.38,9.38,0,0,0,265,72.21Z" transform="translate(-6.18 -54.32)"/></svg>